<svg width="20" height="21" viewBox="0 0 20 21" fill="none" xmlns="http://www.w3.org/2000/svg">
<path d="M10.3234 0C11.2007 0.000139709 11.9944 0.415758 12.4777 1.0752C15.0397 1.92918 16.923 4.25925 16.923 7.04102V9.64844C16.9231 9.80982 16.9633 10.0692 17.0471 10.3594C17.1294 10.6444 17.2337 10.8889 17.3215 11.0352L18.4084 12.75C19.3707 14.2737 18.5684 16.2077 16.8918 16.7344L16.8908 16.7334C15.8316 17.0694 14.7516 17.3208 13.6613 17.4902C13.122 18.7718 11.8084 19.658 10.3234 19.6582C9.34935 19.6582 8.44245 19.2758 7.79219 18.6582C7.45016 18.3333 7.1732 17.9358 6.98652 17.4932C5.89129 17.3238 4.80634 17.0711 3.74238 16.7334L3.73945 16.7324C2.90299 16.4635 2.24626 15.8971 1.94746 15.1309C1.64634 14.3584 1.75506 13.4979 2.22871 12.75L3.32051 11.0264C3.4093 10.8839 3.51542 10.6418 3.59883 10.3564C3.68304 10.0682 3.72281 9.80951 3.72285 9.64844V7.04102C3.72285 4.25021 5.60315 1.92277 8.17012 1.07227C8.65372 0.414252 9.44723 0 10.3234 0ZM11.6574 17.707C10.769 17.7618 9.87793 17.7622 8.98945 17.708C9.3503 17.9846 9.81949 18.1582 10.3234 18.1582C10.8375 18.1581 11.2987 17.9855 11.6574 17.707ZM10.3234 2.52637C7.63167 2.52638 5.52266 4.59396 5.52266 7.04102V9.64844C5.52262 10.0378 5.43919 10.4753 5.32637 10.8613C5.21328 11.2482 5.04913 11.6593 4.84395 11.9863L4.84102 11.9902L3.74922 13.7139L3.74824 13.7129C3.54764 14.0297 3.5525 14.2936 3.62422 14.4775C3.69826 14.667 3.89076 14.8894 4.28633 15.0176C8.20385 16.2609 12.4323 16.2609 16.3498 15.0176H16.3518C16.9732 14.8224 17.1778 14.1753 16.8879 13.7139L15.7951 11.9902L15.7902 11.9824L15.7863 11.9756C15.5898 11.652 15.429 11.2441 15.3176 10.8584C15.2067 10.4743 15.1233 10.0374 15.1232 9.64844V7.04102C15.1232 4.6031 13.0055 2.52659 10.3234 2.52637Z" fill="#F7B267"/>
</svg>
