<svg width="17" height="20" viewBox="0 0 17 20" fill="none" xmlns="http://www.w3.org/2000/svg">
<path d="M12.8467 0C15.1349 0 16.9998 1.82915 17 4.07368V16.5257C17 17.5242 16.6038 18.3287 15.9102 18.7263C15.5949 18.9118 15.2345 18.9999 14.8652 19C14.4058 19 13.9005 18.8676 13.4141 18.5937L9.01758 16.1982C8.75632 16.0572 8.24366 16.0572 7.98242 16.1982L3.58594 18.5937C2.69405 19.0797 1.78354 19.1328 1.08984 18.7263C0.396219 18.3287 3.96616e-05 17.5242 0 16.5257V4.07368C0.00015069 1.82915 1.86513 0 4.15332 0H12.8467ZM4.15332 1.32573C2.61287 1.32573 1.35171 2.56264 1.35156 4.07368V16.5257C1.35159 17.0469 1.50431 17.4358 1.77441 17.5861C2.04465 17.7363 2.45933 17.692 2.92773 17.4358L7.32422 15.0414C7.65745 14.8558 8.07183 14.7668 8.49512 14.7667C8.91854 14.7667 9.33366 14.8558 9.66699 15.0414L14.0635 17.4358C14.5226 17.6919 14.9456 17.7449 15.2158 17.5861C15.4861 17.4271 15.6396 17.0471 15.6396 16.5257V4.07368C15.6395 2.56266 14.3783 1.32576 12.8379 1.32573H4.15332Z" fill="#CAC4BC"/>
</svg>
