<svg width="22" height="22" viewBox="0 0 22 22" fill="none" xmlns="http://www.w3.org/2000/svg">
<path d="M0.75 7.75V5.25C0.75 2.76 2.76 0.75 5.25 0.75H7.75" stroke="#CAC4BC" stroke-width="1.5" stroke-linecap="round" stroke-linejoin="round"/>
<path d="M13.75 0.75H16.25C18.74 0.75 20.75 2.76 20.75 5.25V7.75" stroke="#CAC4BC" stroke-width="1.5" stroke-linecap="round" stroke-linejoin="round"/>
<path d="M20.75 14.75V16.25C20.75 18.74 18.74 20.75 16.25 20.75H14.75" stroke="#CAC4BC" stroke-width="1.5" stroke-linecap="round" stroke-linejoin="round"/>
<path d="M7.75 20.75H5.25C2.76 20.75 0.75 18.74 0.75 16.25V13.75" stroke="#CAC4BC" stroke-width="1.5" stroke-linecap="round" stroke-linejoin="round"/>
<path d="M16.75 10.75V8.75M16.75 10.75H10.75H4.75M16.75 10.75H4.75M16.75 10.75V12.75M4.75 10.75V8.75M4.75 10.75V12.75" stroke="#CAC4BC" stroke-width="1.5" stroke-linecap="round" stroke-linejoin="round"/>
<path d="M10.75 4.75H12.75M10.75 4.75V16.75M10.75 4.75H8.75M10.75 16.75H12.75M10.75 16.75H8.75" stroke="#CAC4BC" stroke-width="1.5" stroke-linecap="round" stroke-linejoin="round"/>
</svg>
