<svg width="21" height="21" viewBox="0 0 21 21" fill="none" xmlns="http://www.w3.org/2000/svg">
<path d="M2.2 6.25C2.2 4.85 3.35 3.7 4.75 3.7H16.25C17.65 3.7 18.8 4.85 18.8 6.25V7.15C17.75 7.45 16.98 8.4 16.98 9.55C16.98 10.7 17.75 11.65 18.8 11.95V14.75C18.8 16.15 17.65 17.3 16.25 17.3H4.75C3.35 17.3 2.2 16.15 2.2 14.75V11.95C3.25 11.65 4.02 10.7 4.02 9.55C4.02 8.4 3.25 7.45 2.2 7.15V6.25Z" stroke="#FF9A3D" stroke-width="1.5" stroke-linejoin="round"/>
<path d="M7.15 4.1V7.1M7.15 12V16.9M12.4 8.05L13.05 9.35L14.5 9.55L13.45 10.57L13.7 12L12.4 11.32L11.1 12L11.35 10.57L10.3 9.55L11.75 9.35L12.4 8.05Z" stroke="#FF9A3D" stroke-width="1.35" stroke-linecap="round" stroke-linejoin="round"/>
</svg>
