<svg width="20" height="20" viewBox="0 0 20 20" fill="none" xmlns="http://www.w3.org/2000/svg">
<path d="M17.8543 9.08756C17.8542 8.16807 17.6256 7.60348 17.2859 7.26377C16.9462 6.92407 16.3816 6.69542 15.4621 6.69536H11.3821C10.4624 6.69536 9.8972 6.92402 9.55745 7.26377C9.21788 7.60351 8.98996 8.16825 8.98992 9.08756V15.4621C8.98996 16.3814 9.21788 16.9461 9.55745 17.2859C9.8972 17.6256 10.4624 17.8543 11.3821 17.8543H15.4621C16.3816 17.8542 16.9462 17.6256 17.2859 17.2859C17.6256 16.9462 17.8542 16.3816 17.8543 15.4621V9.08756ZM12.9444 13.729V12.9444H12.1589C11.7891 12.9444 11.4893 12.6446 11.4893 12.2748C11.4893 11.9051 11.7891 11.6053 12.1589 11.6053H12.9444V10.8189C12.9444 10.4492 13.2441 10.1494 13.6139 10.1494C13.9837 10.1494 14.2834 10.4492 14.2834 10.8189V11.6053H15.0689C15.4387 11.6053 15.7385 11.9051 15.7385 12.2748C15.7385 12.6446 15.4387 12.9444 15.0689 12.9444H14.2834V13.729C14.2834 14.0988 13.9837 14.3985 13.6139 14.3985C13.2441 14.3985 12.9444 14.0988 12.9444 13.729ZM10.2035 3.73127C10.2034 2.81174 9.97475 2.24719 9.63504 1.90748C9.29528 1.56781 8.73082 1.33907 7.81125 1.33907H3.73127C2.81174 1.33912 2.24719 1.56777 1.90748 1.90748C1.56777 2.24719 1.33912 2.81174 1.33907 3.73127V10.1058C1.33912 11.0253 1.56777 11.5899 1.90748 11.9296C2.24719 12.2693 2.81174 12.498 3.73127 12.498H6.02582C6.3956 12.498 6.69536 12.7978 6.69536 13.1675C6.69536 13.5373 6.3956 13.8371 6.02582 13.8371H3.73127C2.60677 13.837 1.64084 13.5565 0.960715 12.8764C0.28059 12.1962 4.63983e-05 11.2303 0 10.1058V3.73127C4.63276e-05 2.60677 0.28059 1.64084 0.960715 0.960715C1.64084 0.28059 2.60677 4.63275e-05 3.73127 0H7.81125C8.93588 0 9.9025 0.280534 10.5827 0.960715C11.2626 1.64082 11.5425 2.60693 11.5425 3.73127C11.5425 4.10104 11.2428 4.4008 10.873 4.4008C10.5033 4.40065 10.2035 4.10095 10.2035 3.73127ZM19.1934 15.4621C19.1933 16.5866 18.9127 17.5525 18.2327 18.2327C17.5525 18.9128 16.5866 19.1933 15.4621 19.1934H11.3821C10.2575 19.1934 9.29087 18.9128 8.61069 18.2327C7.93074 17.5525 7.65089 16.5865 7.65084 15.4621V9.08756C7.65089 7.96319 7.93074 6.99711 8.61069 6.317C9.29087 5.63682 10.2575 5.35629 11.3821 5.35629H15.4621C16.5866 5.35635 17.5525 5.6369 18.2327 6.317C18.9127 6.99713 19.1933 7.96308 19.1934 9.08756V15.4621Z" fill="#6D7A8A"/>
</svg>
