<svg width="16" height="18" viewBox="0 0 16 18" fill="none" xmlns="http://www.w3.org/2000/svg">
<path d="M15.1315 3.86767C12.456 3.60253 9.76444 3.46594 7.08093 3.46594C5.49011 3.46594 3.89929 3.54629 2.30846 3.70698L0.669434 3.86767" stroke="#6D7A8A" stroke-width="1.33907" stroke-linecap="round" stroke-linejoin="round"/>
<path d="M5.08838 3.05579L5.26514 2.00328C5.39369 1.24 5.4901 0.669556 6.84793 0.669556H8.95295C10.3108 0.669556 10.4152 1.27214 10.5357 2.01131L10.7125 3.05579" stroke="#6D7A8A" stroke-width="1.33907" stroke-linecap="round" stroke-linejoin="round"/>
<path d="M13.4042 6.40662L12.8819 14.4973C12.7935 15.7587 12.7212 16.7389 10.4796 16.7389H5.32152C3.0799 16.7389 3.00759 15.7587 2.91921 14.4973L2.39697 6.40662" stroke="#6D7A8A" stroke-width="1.33907" stroke-linecap="round" stroke-linejoin="round"/>
<path d="M6.55859 12.3196H9.23407" stroke="#6D7A8A" stroke-width="1.33907" stroke-linecap="round" stroke-linejoin="round"/>
<path d="M5.8916 9.10571H9.90883" stroke="#6D7A8A" stroke-width="1.33907" stroke-linecap="round" stroke-linejoin="round"/>
</svg>
