<svg width="23" height="20" viewBox="0 0 23 20" fill="none" xmlns="http://www.w3.org/2000/svg">
<path d="M16.7273 15.2V16H6.27273V15.2H16.7273ZM22.1636 10C22.1636 7.12812 19.7297 4.8 16.7273 4.8H6.27273C3.27031 4.8 0.836364 7.12812 0.836364 10C0.836364 12.8719 3.27031 15.2 6.27273 15.2V16L6.11101 15.998C2.72142 15.916 0 13.262 0 10C0 6.68629 2.8084 4 6.27273 4H16.7273C20.1916 4 23 6.68629 23 10C23 13.262 20.2786 15.916 16.889 15.998L16.7273 16V15.2C19.7297 15.2 22.1636 12.8719 22.1636 10Z" fill="#6D7A8A"/>
<path d="M11.1892 10C11.1892 12.651 8.96271 14.8 6.21622 14.8C3.46972 14.8 1.24324 12.651 1.24324 10C1.24324 7.34903 3.46972 5.2 6.21622 5.2C8.96271 5.2 11.1892 7.34903 11.1892 10Z" fill="#D9D9D9"/>
</svg>
