<svg width="19" height="20" viewBox="0 0 19 20" fill="none" xmlns="http://www.w3.org/2000/svg">
<path fill-rule="evenodd" clip-rule="evenodd" d="M14.1237 11.7529C14.6966 11.7529 15.0493 12.3697 14.7555 12.8545L13.8161 14.4707C10.4094 20.5421 8.7336 20.5421 4.97138 14.4707L4.03095 12.8545C3.75198 12.3697 4.10456 11.753 4.67743 11.7529H14.1237ZM13.3161 0C18.1933 0.000165098 20.1766 3.4526 17.7526 7.66895L16.6657 9.54884C16.4012 10.0042 15.9162 10.2832 15.3873 10.2832H3.39912C2.87023 10.2832 2.38525 10.0043 2.1208 9.54884L1.0339 7.66895C-1.39016 3.45255 0.592973 7.5108e-05 5.4704 0H13.3161Z" fill="#FF9A3D"/>
</svg>
