<svg width="16" height="16" viewBox="0 0 16 16" fill="none" xmlns="http://www.w3.org/2000/svg">
<path d="M14.957 7.81334V5.6702C14.957 2.09831 13.5282 0.669556 9.95635 0.669556H5.67008C2.09819 0.669556 0.669434 2.09831 0.669434 5.6702V9.95647C0.669434 13.5284 2.09819 14.9571 5.67008 14.9571H7.81321" stroke="#6D7A8A" stroke-width="1.33907" stroke-linecap="round" stroke-linejoin="round"/>
<path d="M14.2139 11.9857L13.0495 12.3786C12.728 12.4857 12.4708 12.7358 12.3637 13.0644L11.9708 14.2288C11.635 15.2361 10.2205 15.2146 9.90621 14.2074L8.58462 9.95682C8.32744 9.11386 9.10611 8.32804 9.94193 8.59236L14.1996 9.91396C15.1998 10.2283 15.214 11.6499 14.2139 11.9857Z" stroke="#6D7A8A" stroke-width="1.33907" stroke-linecap="round" stroke-linejoin="round"/>
</svg>
