<svg width="31" height="36" viewBox="0 0 31 36" fill="none" xmlns="http://www.w3.org/2000/svg">
<rect y="6" width="1" height="25" rx="0.5" fill="#F7B267"/>
<path d="M20.0675 8C16.2344 8 12.7397 10.2318 11.0962 13.7185C10.9836 13.9591 10.9701 14.2349 11.0587 14.4855C11.1472 14.7361 11.3307 14.9413 11.569 15.0562C11.8079 15.1696 12.0818 15.1831 12.3307 15.0939C12.5796 15.0048 12.7833 14.82 12.8975 14.5801C14.2117 11.792 17.0024 10.0163 20.0675 10.0163C24.4596 10.0163 27.9975 13.5786 27.9975 18.001C27.9975 22.4234 24.4596 25.9935 20.0675 25.9935C17.0024 25.9935 14.2117 24.2159 12.8975 21.4278C12.7833 21.1878 12.5796 21.0031 12.3307 20.9139C12.0818 20.8247 11.8079 20.8383 11.569 20.9517C11.3302 21.0666 11.1464 21.2721 11.0577 21.5232C10.9691 21.7743 10.9829 22.0505 11.0962 22.2913C12.7397 25.778 16.2344 28 20.0675 28C25.5408 28 30 23.512 30 18.001C30 12.49 25.5408 8 20.0675 8ZM21.1244 13.748C20.993 13.7498 20.8633 13.7777 20.7426 13.83C20.622 13.8823 20.5127 13.9581 20.4211 14.0529C20.3295 14.148 20.2574 14.2604 20.2089 14.3836C20.1605 14.5068 20.1367 14.6384 20.1389 14.7709C20.1411 14.9034 20.1692 15.0342 20.2216 15.1557C20.2741 15.2772 20.3498 15.3871 20.4445 15.4791L22.0094 16.9977H15.1344C15.0031 16.9972 14.8729 17.0228 14.7513 17.0729C14.6298 17.123 14.5192 17.1968 14.426 17.29C14.3327 17.3831 14.2586 17.4939 14.2079 17.6159C14.1571 17.7379 14.1308 17.8687 14.1302 18.001C14.1297 18.1339 14.1553 18.2656 14.2056 18.3885C14.2559 18.5115 14.3299 18.6231 14.4232 18.7171C14.5166 18.8111 14.6275 18.8856 14.7495 18.9362C14.8716 18.9868 15.0024 19.0126 15.1344 19.0121H22.0133L20.4445 20.5288C20.3498 20.6208 20.2741 20.7307 20.2216 20.8522C20.1692 20.9737 20.1411 21.1045 20.1389 21.237C20.1367 21.3694 20.1605 21.5011 20.2089 21.6243C20.2574 21.7475 20.3295 21.8598 20.4211 21.955C20.6054 22.1458 20.8572 22.2553 21.1215 22.2598C21.3859 22.2642 21.6412 22.1631 21.8317 21.9786L25.192 18.7288C25.2887 18.6349 25.3656 18.5223 25.4182 18.3977C25.4707 18.2732 25.4978 18.1392 25.4978 18.0039C25.4978 17.8686 25.4707 17.7347 25.4182 17.6101C25.3656 17.4856 25.2887 17.373 25.192 17.279L21.8317 14.0234C21.6409 13.8417 21.3869 13.7428 21.1244 13.748Z" fill="#F7B267"/>
</svg>
