<svg width="21" height="21" viewBox="0 0 21 21" fill="none" xmlns="http://www.w3.org/2000/svg">
<path d="M10.0675 0C6.23443 0 2.73968 2.23182 1.09617 5.7185C0.983557 5.95914 0.970071 6.23487 1.05865 6.48548C1.14723 6.7361 1.33068 6.94126 1.56896 7.05616C1.80795 7.16955 2.08179 7.18313 2.33069 7.09394C2.57959 7.00475 2.78334 6.82003 2.89746 6.58011C4.2117 3.79197 7.00237 2.01633 10.0675 2.01633C14.4596 2.01633 17.9975 5.5786 17.9975 10.001C17.9975 14.4234 14.4596 17.9935 10.0675 17.9935C7.00237 17.9935 4.2117 16.2159 2.89746 13.4278C2.78334 13.1878 2.57959 13.0031 2.33069 12.9139C2.08179 12.8247 1.80795 12.8383 1.56896 12.9517C1.33018 13.0666 1.14636 13.2721 1.05774 13.5232C0.96913 13.7743 0.982945 14.0505 1.09617 14.2913C2.73968 17.778 6.23443 20 10.0675 20C15.5408 20 20 15.512 20 10.001C20 4.48996 15.5408 0 10.0675 0ZM11.1244 5.74801C10.993 5.74983 10.8633 5.7777 10.7426 5.83002C10.622 5.88234 10.5127 5.95808 10.4211 6.05292C10.3295 6.14803 10.2574 6.2604 10.2089 6.38361C10.1605 6.50681 10.1367 6.63843 10.1389 6.77091C10.1411 6.9034 10.1692 7.03415 10.2216 7.15567C10.2741 7.2772 10.3498 7.38711 10.4445 7.47911L12.0094 8.99774H5.13443C5.00307 8.99723 4.87289 9.02277 4.75134 9.0729C4.62978 9.12304 4.51922 9.1968 4.42597 9.28996C4.33272 9.38312 4.25861 9.49386 4.20787 9.61586C4.15713 9.73786 4.13075 9.86873 4.13023 10.001C4.12972 10.1339 4.15534 10.2656 4.20562 10.3885C4.2559 10.5115 4.32985 10.6231 4.4232 10.7171C4.51656 10.8111 4.62746 10.8856 4.74953 10.9362C4.8716 10.9868 5.00241 11.0126 5.13443 11.0121H12.0133L10.4445 12.5288C10.3498 12.6208 10.2741 12.7307 10.2216 12.8522C10.1692 12.9737 10.1411 13.1045 10.1389 13.237C10.1367 13.3694 10.1605 13.5011 10.2089 13.6243C10.2574 13.7475 10.3295 13.8598 10.4211 13.955C10.6054 14.1458 10.8572 14.2553 11.1215 14.2598C11.3859 14.2642 11.6412 14.1631 11.8317 13.9786L15.192 10.7288C15.2887 10.6349 15.3656 10.5223 15.4182 10.3977C15.4707 10.2732 15.4978 10.1392 15.4978 10.0039C15.4978 9.86861 15.4707 9.73469 15.4182 9.61014C15.3656 9.4856 15.2887 9.37299 15.192 9.27903L11.8317 6.02341C11.6409 5.84171 11.3869 5.7428 11.1244 5.74801Z" fill="#F7B267"/>
</svg>
