<svg width="22" height="22" viewBox="0 0 22 22" fill="none" xmlns="http://www.w3.org/2000/svg">
  <path d="M13.75 0C19.18 0 21.5 2.32 21.5 7.75V13.75C21.5 19.18 19.18 21.5 13.75 21.5H7.75C2.32 21.5 0 19.18 0 13.75V7.75C0 2.32 2.32 0 7.75 0H13.75ZM7.75 1.5C3.14 1.5 1.5 3.14 1.5 7.75V13.75C1.5 18.36 3.14 20 7.75 20H13.75C18.36 20 20 18.36 20 13.75V7.75C20 3.14 18.36 1.5 13.75 1.5H7.75ZM8.93066 4.84961C9.34046 4.84987 9.68066 5.18977 9.68066 5.59961V15.9092C9.68066 16.1349 9.57797 16.3342 9.41797 16.4697C9.40075 16.4853 9.38264 16.4992 9.36426 16.5127C9.35914 16.5163 9.35482 16.521 9.34961 16.5244C9.2617 16.5851 9.16191 16.6211 9.05664 16.6377C9.01568 16.6444 8.97378 16.6494 8.93066 16.6494H8.92969L8.92773 16.6484C8.88852 16.6483 8.85018 16.6448 8.8125 16.6387C8.66331 16.6153 8.51925 16.5485 8.40039 16.4297L5.36035 13.3896C5.07035 13.0996 5.07035 12.6201 5.36035 12.3301C5.65035 12.0401 6.12992 12.0401 6.41992 12.3301L8.18066 14.0908V5.59961C8.18066 5.18961 8.52064 4.84961 8.93066 4.84961ZM12.5703 4.84961C12.7033 4.8497 12.8275 4.88782 12.9365 4.9502C12.9947 4.98267 13.0505 5.0212 13.0996 5.07031L16.1396 8.11035C16.4296 8.40036 16.4296 8.87995 16.1396 9.16992C15.9897 9.30991 15.7994 9.38965 15.6094 9.38965C15.4196 9.38955 15.23 9.31974 15.0801 9.16992L13.3203 7.41016V15.9092C13.3203 16.319 12.9801 16.6492 12.5703 16.6494C12.1603 16.6494 11.8203 16.3094 11.8203 15.8994V5.59961C11.8203 5.47568 11.8535 5.35954 11.9082 5.25586C11.9424 5.18925 11.9846 5.12571 12.04 5.07031C12.0919 5.01848 12.1511 4.97862 12.2129 4.94531C12.3198 4.88618 12.441 4.84961 12.5703 4.84961Z" fill="currentColor"/>
</svg>
