<svg width="20" height="19" viewBox="0 0 20 19" fill="none" xmlns="http://www.w3.org/2000/svg">
<path d="M4.9 4.3H10.8C13.35 4.3 14.9 5.75 14.9 8.25V11.8C14.9 14.3 13.35 15.75 10.8 15.75H10.25L8.55 18C8.2 18.45 7.55 18.45 7.2 18L5.5 15.75H4.9C2.35 15.75 0.8 14.3 0.8 11.8V8.25C0.8 5.75 2.35 4.3 4.9 4.3Z" stroke="#FF9A3D" stroke-width="1.5" stroke-linejoin="round"/>
<path d="M5 10.15H5.05M7.85 10.15H7.9M10.7 10.15H10.75" stroke="#FF9A3D" stroke-width="2" stroke-linecap="round"/>
<path d="M4.6 4.3C4.9 2.25 6.35 1 8.7 1H14.3C17 1 18.45 2.45 18.45 5.1V8.55C18.45 10.75 17.45 12.1 15.65 12.5" stroke="#FF9A3D" stroke-width="1.5" stroke-linecap="round"/>
</svg>
