<svg width="11" height="17" viewBox="0 0 11 17" fill="none" xmlns="http://www.w3.org/2000/svg">
  <path d="M8.45312 0.248051C8.86824 -0.116202 9.49999 -0.074277 9.86426 0.340824C10.2285 0.755936 10.1876 1.38768 9.77246 1.75196L2.51465 8.11914L9.77246 14.4873C10.1876 14.8516 10.2285 15.4833 9.86426 15.8984C9.49996 16.3135 8.8682 16.3545 8.45312 15.9902L0.34082 8.8711C0.339178 8.86966 0.337568 8.86766 0.335938 8.86621C0.319524 8.85158 0.303696 8.8362 0.288086 8.82032C0.277851 8.80994 0.267507 8.79979 0.257812 8.78907C0.254774 8.7857 0.251049 8.78272 0.248047 8.7793C0.238514 8.76843 0.230658 8.75628 0.22168 8.74512C0.213104 8.73448 0.203393 8.72479 0.195312 8.71387C0.183101 8.69737 0.17219 8.68011 0.161133 8.66309C0.153391 8.65115 0.145859 8.63915 0.138672 8.62696C0.130938 8.61386 0.124267 8.60027 0.117188 8.58692C0.108922 8.5713 0.100162 8.55601 0.0927734 8.54004C0.0859322 8.52529 0.0802957 8.51011 0.0742188 8.49512C0.0680149 8.4798 0.0610836 8.46479 0.0556641 8.44922C0.0389413 8.40124 0.0267406 8.35218 0.0175781 8.30274C0.0151011 8.28941 0.0126772 8.2761 0.0107422 8.2627C0.00831651 8.2458 0.00644076 8.22888 0.00488281 8.21192C0.00361375 8.19824 0.00168497 8.18462 0.000976562 8.1709C0.000630885 8.16407 0.000205987 8.15723 0 8.15039V8.08887C0.000204633 8.08203 0.000632243 8.0752 0.000976562 8.06836C0.0016823 8.05465 0.00361638 8.04102 0.00488281 8.02735C0.00646676 8.01006 0.00825739 7.9928 0.0107422 7.97559C0.0126873 7.96219 0.0150912 7.94887 0.0175781 7.93555C0.0267761 7.88613 0.0389096 7.83702 0.0556641 7.78907C0.0610938 7.77351 0.0680052 7.75848 0.0742188 7.74317C0.0782851 7.73316 0.0815304 7.7228 0.0859375 7.71289L0.0996094 7.6836C0.105876 7.67064 0.113265 7.65823 0.120117 7.64551C0.125362 7.63579 0.130148 7.6258 0.135742 7.61621C0.145577 7.59933 0.156099 7.58279 0.166992 7.56641C0.176158 7.55264 0.185383 7.53882 0.195312 7.52539C0.203543 7.51427 0.212936 7.50401 0.22168 7.49317C0.230508 7.48221 0.238683 7.47064 0.248047 7.45996C0.251176 7.4564 0.254644 7.45273 0.257812 7.44922C0.260748 7.44598 0.263617 7.44267 0.266602 7.43946L0.319336 7.38672C0.32628 7.38026 0.333733 7.3744 0.34082 7.36817L8.45312 0.248051Z" fill="#FF9A3D"/>
</svg>
