<svg width="18" height="18" viewBox="0 0 18 18" fill="none" xmlns="http://www.w3.org/2000/svg">
<path d="M5.45 2.15L6.7 4.95C6.9 5.4 6.78 5.95 6.4 6.27L5.38 7.12C6.2 8.85 7.6 10.25 9.33 11.08L10.18 10.05C10.5 9.67 11.05 9.55 11.5 9.75L14.3 11C14.95 11.3 15.28 12.03 15.07 12.72L14.7 13.95C14.5 14.62 13.87 15.08 13.17 15.08C7.45 15.08 2.82 10.45 2.82 4.73C2.82 4.03 3.28 3.4 3.95 3.2L5.18 2.83C5.87 2.62 6.6 2.95 6.9 3.6" stroke="#FF9A3D" stroke-width="1.5" stroke-linecap="round" stroke-linejoin="round"/>
</svg>
