<svg width="20" height="21" viewBox="0 0 19.9994 20.5" fill="none" xmlns="http://www.w3.org/2000/svg">
  <path d="M14.04 7.66992C14.3159 7.58407 14.6018 7.67052 14.8164 7.86133C17.1465 9.97106 18.2101 12.1479 17.9648 14.334C17.5763 17.7607 14.0198 20.0034 13.3145 20.4141C13.1918 20.4618 13.018 20.5 12.8545 20.5C12.6809 20.5 12.5175 20.462 12.3848 20.3857C11.9249 20.1089 9.63581 18.6289 9.2168 16.376C8.9921 15.1256 9.36961 13.8848 10.3506 12.7012C13.1943 9.26423 13.5175 8.25809 13.5293 8.21484C13.5702 7.94755 13.7641 7.75584 14.04 7.66992ZM9.1582 0.0419922C9.61799 -0.0725262 10.1184 0.0515624 10.4658 0.375977C10.4965 0.395069 10.5176 0.42351 10.5381 0.452148C11.4987 1.65494 12.5302 3.80292 12.5303 6.22754C12.5303 7.88844 11.284 9.39675 10.0781 10.8477C8.80064 12.3941 7.48192 13.9889 7.625 15.7168C7.75789 16.9959 8.35047 17.97 8.74902 18.6191C9.08621 19.1632 9.4033 19.6783 9.00488 20.165C8.79034 20.4131 8.50427 20.4892 8.20801 20.4893C7.94244 20.4893 7.67657 20.4227 7.48242 20.375C5.22389 19.7736 3.18 17.8454 2.38281 15.583C1.56524 13.2633 2.06545 10.8386 3.80273 8.74805C6.97054 4.87273 8.02313 1.75116 8.26855 0.891602C8.38097 0.481117 8.70853 0.166092 9.1582 0.0419922ZM14.5098 9.6084C14.0396 10.3817 13.1809 11.6229 11.5664 13.5605C10.841 14.4291 10.5752 15.2696 10.7285 16.1191C10.974 17.4459 12.2214 18.4859 12.8652 18.9346C13.8772 18.2757 16.166 16.5384 16.4316 14.1426C16.6054 12.6725 15.961 11.1549 14.5098 9.6084ZM9.60742 1.71191C9.13731 3.15338 7.91077 6.07479 5.01855 9.62598C3.20988 11.8118 3.38394 13.8357 3.84375 15.1436C4.3854 16.6805 5.61219 18.0173 7.04297 18.6855C6.65463 17.9792 6.22519 17.0245 6.10254 15.8408C5.91858 13.5497 7.48214 11.6499 8.87207 9.96973C9.96556 8.64285 10.998 7.39192 10.998 6.21777C10.9979 4.40416 10.3023 2.74282 9.60742 1.71191Z" fill="#000000"/>
</svg>
