<svg preserveAspectRatio="none" width="100%" height="100%" overflow="visible" style="display: block;" viewBox="0 0 14.0046 14.348" fill="none" xmlns="http://www.w3.org/2000/svg">
<path d="M9.35547 9.64844C9.55191 9.45436 9.86842 9.45688 10.0625 9.65332L13.8604 13.4971C14.054 13.6935 14.0527 14.0101 13.8564 14.2041C13.6601 14.3981 13.3425 14.3955 13.1484 14.1992L9.35156 10.3555C9.15753 10.159 9.15907 9.84251 9.35547 9.64844ZM5.5 0C8.53757 0 11 2.46243 11 5.5C11 8.53757 8.53757 11 5.5 11C2.46243 11 0 8.53757 0 5.5C0 2.46243 2.46243 0 5.5 0ZM5.5 1C3.01472 1 1 3.01472 1 5.5C1 7.98528 3.01472 10 5.5 10C7.98528 10 10 7.98528 10 5.5C10 3.01472 7.98528 1 5.5 1Z" fill="var(--fill-0, #F7B267)"/>
</svg>
