<svg width="20" height="20" viewBox="0 0 20 20" fill="none" xmlns="http://www.w3.org/2000/svg">
<path d="M8.7 1.5H11.3L11.85 4C12.25 4.13 12.62 4.28 12.98 4.5L15.18 3.12L17.02 4.98L15.65 7.15C15.85 7.52 16.02 7.9 16.15 8.3L18.65 8.85V11.45L16.15 12C16.02 12.4 15.85 12.78 15.65 13.15L17.02 15.32L15.18 17.18L12.98 15.8C12.62 16.02 12.25 16.17 11.85 16.3L11.3 18.8H8.7L8.15 16.3C7.75 16.17 7.38 16.02 7.02 15.8L4.82 17.18L2.98 15.32L4.35 13.15C4.15 12.78 3.98 12.4 3.85 12L1.35 11.45V8.85L3.85 8.3C3.98 7.9 4.15 7.52 4.35 7.15L2.98 4.98L4.82 3.12L7.02 4.5C7.38 4.28 7.75 4.13 8.15 4L8.7 1.5Z" stroke="#FFFFFF" stroke-width="1.5" stroke-linejoin="round"/>
<circle cx="10" cy="10.15" r="2.3" stroke="#FFFFFF" stroke-width="1.5"/>
</svg>
