<svg width="24" height="24" viewBox="0 0 23.4846 23.4857" fill="none" xmlns="http://www.w3.org/2000/svg">
  <path d="M16.0614 8.78746C16.377 8.68912 16.7046 8.78752 16.9501 9.00621C19.6151 11.4229 20.831 13.9162 20.5507 16.4203C20.1064 20.3463 16.038 22.9168 15.2313 23.3871C15.091 23.4417 14.892 23.4857 14.705 23.4857C14.5063 23.4857 14.3188 23.4413 14.1669 23.3539C13.6399 23.0361 11.0231 21.3412 10.5438 18.7611C10.2866 17.3285 10.7184 15.9062 11.8407 14.5502C15.1022 10.6024 15.4647 9.45425 15.4764 9.4105C15.5232 9.10435 15.7458 8.88587 16.0614 8.78746ZM10.4764 0.0481974C11.0025 -0.0830345 11.576 0.0591862 11.9735 0.43101C12.0084 0.452882 12.0313 0.486193 12.0546 0.518901C13.1534 1.89686 14.3348 4.35744 14.3348 7.13511C14.3346 9.03781 12.9086 10.7659 11.5292 12.4281C10.0679 14.1997 8.55985 16.0258 8.72351 18.0052C8.8755 19.4703 9.55276 20.5858 10.0087 21.3294C10.3944 21.9527 10.7572 22.5433 10.3016 23.1009C10.0561 23.3853 9.72854 23.473 9.38953 23.473C9.0856 23.473 8.78156 23.3968 8.55945 23.3421C5.97585 22.6532 3.63732 20.4437 2.72546 17.8519C1.79035 15.1946 2.36326 12.4167 4.35046 10.0218C7.97418 5.58222 9.17912 2.00646 9.45984 1.02183C9.58841 0.551665 9.9622 0.190417 10.4764 0.0481974ZM16.5985 11.0072C16.0608 11.893 15.0792 13.3148 13.2323 15.5345C12.4023 16.5297 12.098 17.4929 12.2733 18.4662C12.5541 19.9859 13.9802 21.1778 14.7167 21.6918C15.874 20.9372 18.4928 18.9465 18.7968 16.2015C18.9953 14.5175 18.2584 12.7787 16.5985 11.0072ZM10.9911 1.96226C10.4533 3.61366 9.0502 6.95978 5.74207 11.0277C3.67287 13.532 3.87128 15.8507 4.39734 17.349C5.01693 19.1097 6.41987 20.6411 8.05652 21.4066C7.61228 20.5973 7.12161 19.5029 6.98132 18.1468C6.77111 15.5224 8.55943 13.3459 10.1493 11.4212C11.4001 9.90121 12.5809 8.46847 12.5809 7.12339C12.5808 5.04581 11.786 3.14329 10.9911 1.96226Z" fill="#7A8B52"/>
</svg>
