<svg width="21" height="21" viewBox="0 0 21 21" fill="none" xmlns="http://www.w3.org/2000/svg">
<path d="M10.2349 12.1136C15.0123 12.1136 19.2349 15.2777 19.2349 19.5682C19.2349 20.0828 18.8147 20.5 18.2964 20.5C18.2679 20.5 18.2399 20.4979 18.2121 20.4955C18.1843 20.4979 18.1562 20.5 18.1277 20.5H2.17336C1.65504 20.5 1.23486 20.0828 1.23486 19.5682C1.23486 15.2777 5.4575 12.1137 10.2349 12.1136ZM10.2349 13.9773C6.55912 13.9773 3.77414 16.1029 3.21633 18.6364H17.2534C16.6956 16.1029 13.9106 13.9773 10.2349 13.9773ZM10.2349 0C13.3447 0 15.8658 2.50314 15.8658 5.59091C15.8658 8.67868 13.3447 11.1818 10.2349 11.1818C7.12498 11.1818 4.60391 8.67868 4.60391 5.59091C4.60391 2.50314 7.12498 0 10.2349 0ZM10.2349 1.86364C8.16161 1.86364 6.48089 3.5324 6.48089 5.59091C6.48089 7.64942 8.16161 9.31818 10.2349 9.31818C12.3081 9.31818 13.9888 7.64942 13.9888 5.59091C13.9888 3.5324 12.3081 1.86364 10.2349 1.86364Z" fill="#F7B267"/>
</svg>
