<?xml version="1.0" encoding="UTF-8"?><svg id="_레이어_2" xmlns="http://www.w3.org/2000/svg" viewBox="0 0 164.87 125.38"><g id="_레이어_1-2"><path d="M81.52,97.71c.59-3.51,1.22-7.01,2.16-10.44.23-.86.51-1.71.79-2.55.27-.81.63-1.65.76-2.49.17-1.12.04-2.36-.74-3.24-.47-.53-1.12-.85-1.81-.99-1.73-.36-3.44.72-4.06,2.37-2.07,5.59-3.45,12.14-4.52,18.08v.02c-13.77.47-57.92,1.99-57.95,2-1.79.05-3.21,1.55-3.16,3.34.05,1.79,1.54,3.2,3.33,3.16l15.49-.53c1.68-.04,3.3-.11,4.88-.14,2.24-.04,3.74-.4,5.82,1.48,2.18,1.98,1.45,9.39.69,12.96-.43,2.02.47,3.9,2.42,4.5,1.83.56,4.03-.51,4.54-2.63,1.14-4.71,1.61-12.32-.6-16.78l24.01-.83v.03c-.08,8.34,3.72,15.57,12.46,15.71,5.23-.21,10.04-3.18,12.49-7.79,1.77-3.33,1.49-7.03-.68-10.06-4.14-5.16-9.89-5.19-16.33-5.17ZM92.26,109.37c-1.18,2.47-3.66,3.93-6.27,4.13-4.24,0-5.25-4.59-5.14-8.59,3.85.14,8.4-.42,10.92,1.92.63.58.96,1.55.49,2.53Z" fill="#fe701e"/><path d="M162.01,110.8c-6.88-1.02-13.75-.97-20.85-.87,1.71-3.43,2.68-8.62.66-11.82-.75-1.33-2.35-1.86-3.86-1.32-1.16.41-2.71,1.81-2.4,3.31,1.02,4.91-1.55,9.86-6.62,10.8l-4.71.87c-1.85.34-2.89,2.25-2.64,3.96.29,1.94,1.77,2.98,3.7,3.15,2.21.2,4.05-.66,6.2-.95,9.88-1.29,19.78-.94,29.66-.16,1.95.15,3.41-1.37,3.68-3.01.27-1.65-.86-3.68-2.82-3.97Z" fill="#fe701e"/><path d="M44.05,96.45c4.37-.33,8.71-.79,12.84-1.94,2.01-.56,2.84-2.89,2.37-4.39-.7-2.2-2.63-2.94-4.73-2.44-4.69,1.11-11.89,2.19-16.32,1.19-1.43-.32-2.16-1.41-2.31-2.81-.28-2.65.12-5.3.66-7.9.47-2.21,1.51-5.46-.73-7.04-.3-.21-.64-.38-.99-.48-1.54-.43-3.09.14-3.87,1.4-.99,1.58-1.17,3.4-1.59,5.47-.66,3.24-1.01,6.44-.6,9.69.98,7.69,7.98,9.8,15.28,9.25Z" fill="#fe701e"/><path d="M114.55,76.36c-2.37.22-3.45,2.57-3.24,5.04.01.15.03.3.05.45-.92,9.58-2.23,19.08-4.09,28.62l-.67,4.57c-.28,1.94,1.24,3.47,2.98,3.73,1.71.26,3.61-.73,3.97-2.68l2.18-11.88,1.22-8.09,1.46-13.43c.14-1.27.16-2.42-.05-3.55-.32-1.78-1.98-2.95-3.81-2.78Z" fill="#fe701e"/><path d="M133.45,92.7c3.92,2.26,8.82,1.84,12.27-.94,2.42-1.94,3.62-4.81,3.45-7.91-.15-2.73-1.56-5.48-3.93-7.14-2.15-1.51-4.12-1.2-6.37-.43-4.4-.48-8.37,3.55-9.24,7.75-.71,3.42.63,6.83,3.82,8.67ZM139.32,83.02c.78.06,1.46.27,2.2.14.79.95.59,2.52-.76,3.27-1.01.56-3.24.87-3.87-.34-.63-1.23,1.2-3.17,2.43-3.08Z" fill="#fe701e"/><path d="M101.55,76.85c-1.85-.19-3.53,1.03-3.82,3.09l-1.09,7.6c-.31,2.19-.76,4.22-1.38,6.32-.56,1.89.63,3.81,2.31,4.36,4.75,1.55,5.7-5.76,6.3-10.49l.88-6.93c.27-2.14-1.17-3.73-3.2-3.94Z" fill="#fe701e"/><circle cx="4.3" cy="104.5" r="4.3" fill="#fe701e"/><path d="M145.06,42.54c-1.36-.26-2.76-.25-4.13-.1-.52.06-1.03.13-1.55.23-1.52.28-6.7.95-7.59.85-2.3-.28-4.61-1.27-5.98-3.13-1.15-1.56-1.53-3.64-1.11-5.54.56-2.53,2.27-3.66,3.92-5.4.89-.93,1.18-2.35.67-3.54-.01-.02-.02-.05-.03-.07-.02-.04-.04-.08-.06-.12-1.47-3.06-5.45-4.54-8.43-2.72-.76.46-1.4,1.1-2.19,1.51-1.87.97-4.42.29-5.55-1.48-1.13-1.77-.68-4.38,1-5.64.67-.5,1.47-.8,2.15-1.29,2-1.46,2.4-4.58.96-6.57-1.34-1.85-3.89-2.32-6.01-1.82-6.89,1.61-13.09,5.51-17.65,10.91-11.06,13.09-10.36,31.86,1.55,41.94,1.18,1,2.42,1.86,3.72,2.62-1.02,1.23-1.49,2.64-1.18,4,.68,2.98,4.84,4.57,9.29,3.55,2.82-.64,11.92-2.69,22.67-16.86,1.05-1.39,2.17-2.74,3.39-3.99,1-1.02,2.06-1.98,3.22-2.82,1-.72,2.07-1.35,3.2-1.85,1.07-.48,2.19-.84,3.33-1.12,1.19-.28,2.41-.47,3.63-.61.35-.04.7-.07,1.05-.11-.7-.42-1.51-.66-2.32-.82ZM98.63,47.96c-1.46,0-2.65-2.35-2.65-5.24s1.18-5.24,2.65-5.24,2.65,2.35,2.65,5.24-1.18,5.24-2.65,5.24ZM109.3,47.96c-1.46,0-2.65-2.35-2.65-5.24s1.18-5.24,2.65-5.24,2.65,2.35,2.65,5.24-1.18,5.24-2.65,5.24Z" fill="#fe701e"/><circle cx="126.43" cy="4.99" r="4.99" fill="#fe701e"/></g></svg>