<svg xmlns="http://www.w3.org/2000/svg" viewBox="0 0 80 80">
  <g transform="translate(9.125 4.49)">
    <path
      d="M59.43,42.54c-1.36-.26-2.76-.25-4.13-.1-.52.06-1.03.13-1.55.23-1.52.28-6.7.95-7.59.85-2.3-.28-4.61-1.27-5.98-3.13-1.15-1.56-1.53-3.64-1.11-5.54.56-2.53,2.27-3.66,3.92-5.4.89-.93,1.18-2.35.67-3.54-.01-.02-.02-.05-.03-.07-.02-.04-.04-.08-.06-.12-1.47-3.06-5.45-4.54-8.43-2.72-.76.46-1.4,1.1-2.19,1.51-1.87.97-4.42.29-5.55-1.48-1.13-1.77-.68-4.38,1-5.64.67-.5,1.47-.8,2.15-1.29,2-1.46,2.4-4.58.96-6.57-1.34-1.85-3.89-2.32-6.01-1.82-6.89,1.61-13.09,5.51-17.65,10.91-11.06,13.09-10.36,31.86,1.55,41.94,1.18,1,2.42,1.86,3.72,2.62-1.02,1.23-1.49,2.64-1.18,4,.68,2.98,4.84,4.57,9.29,3.55,2.82-.64,11.92-2.69,22.67-16.86,1.05-1.39,2.17-2.74,3.39-3.99,1-1.02,2.06-1.98,3.22-2.82,1-.72,2.07-1.35,3.2-1.85,1.07-.48,2.19-.84,3.33-1.12,1.19-.28,2.41-.47,3.63-.61.35-.04.7-.07,1.05-.11-.7-.42-1.51-.66-2.32-.82ZM13,47.96c-1.46,0-2.65-2.35-2.65-5.24s1.18-5.24,2.65-5.24,2.65,2.35,2.65,5.24-1.18,5.24-2.65,5.24ZM23.67,47.96c-1.46,0-2.65-2.35-2.65-5.24s1.18-5.24,2.65-5.24,2.65,2.35,2.65,5.24-1.18,5.24-2.65,5.24Z"
      fill="#fe701e"
    />
    <circle cx="40.81" cy="4.99" r="4.99" fill="#fe701e" />
  </g>
</svg>
